<mxfile host="app.diagrams.net" modified="2022-09-19T05:12:16.782Z" agent="5.0 (Windows NT 10.0; Win64; x64) AppleWebKit/537.36 (KHTML, like Gecko) Chrome/105.0.0.0 Safari/537.36" etag="IV2TG_50Ynbf3z5N1f5l" version="20.3.2" type="github">
  <diagram id="IsAbBrgdhXNqj2QaHVPD" name="第 1 页">
    <mxGraphModel dx="1038" dy="581" grid="1" gridSize="10" guides="1" tooltips="1" connect="1" arrows="1" fold="1" page="1" pageScale="1" pageWidth="827" pageHeight="1169" math="0" shadow="0">
      <root>
        <mxCell id="0" />
        <mxCell id="1" parent="0" />
        <mxCell id="tCJaJ9mKPcPmhKEWINNM-6" style="edgeStyle=orthogonalEdgeStyle;rounded=0;orthogonalLoop=1;jettySize=auto;html=1;exitX=0.5;exitY=1;exitDx=0;exitDy=0;entryX=0.5;entryY=0;entryDx=0;entryDy=0;" edge="1" parent="1" source="tCJaJ9mKPcPmhKEWINNM-1" target="tCJaJ9mKPcPmhKEWINNM-2">
          <mxGeometry relative="1" as="geometry" />
        </mxCell>
        <mxCell id="tCJaJ9mKPcPmhKEWINNM-7" style="edgeStyle=orthogonalEdgeStyle;rounded=0;orthogonalLoop=1;jettySize=auto;html=1;exitX=0.5;exitY=1;exitDx=0;exitDy=0;" edge="1" parent="1" source="tCJaJ9mKPcPmhKEWINNM-1" target="tCJaJ9mKPcPmhKEWINNM-4">
          <mxGeometry relative="1" as="geometry" />
        </mxCell>
        <mxCell id="tCJaJ9mKPcPmhKEWINNM-1" value="用户" style="ellipse;whiteSpace=wrap;html=1;" vertex="1" parent="1">
          <mxGeometry x="330" y="70" width="120" height="80" as="geometry" />
        </mxCell>
        <mxCell id="tCJaJ9mKPcPmhKEWINNM-11" style="edgeStyle=orthogonalEdgeStyle;rounded=0;orthogonalLoop=1;jettySize=auto;html=1;exitX=1;exitY=0.5;exitDx=0;exitDy=0;entryX=0.5;entryY=0;entryDx=0;entryDy=0;entryPerimeter=0;" edge="1" parent="1" source="tCJaJ9mKPcPmhKEWINNM-2" target="tCJaJ9mKPcPmhKEWINNM-8">
          <mxGeometry relative="1" as="geometry" />
        </mxCell>
        <mxCell id="tCJaJ9mKPcPmhKEWINNM-2" value="应用1" style="whiteSpace=wrap;html=1;aspect=fixed;" vertex="1" parent="1">
          <mxGeometry x="160" y="250" width="80" height="80" as="geometry" />
        </mxCell>
        <mxCell id="tCJaJ9mKPcPmhKEWINNM-12" style="edgeStyle=orthogonalEdgeStyle;rounded=0;orthogonalLoop=1;jettySize=auto;html=1;" edge="1" parent="1" source="tCJaJ9mKPcPmhKEWINNM-4">
          <mxGeometry relative="1" as="geometry">
            <mxPoint x="390" y="400" as="targetPoint" />
          </mxGeometry>
        </mxCell>
        <mxCell id="tCJaJ9mKPcPmhKEWINNM-4" value="应用2" style="whiteSpace=wrap;html=1;aspect=fixed;" vertex="1" parent="1">
          <mxGeometry x="520" y="250" width="80" height="80" as="geometry" />
        </mxCell>
        <mxCell id="tCJaJ9mKPcPmhKEWINNM-8" value="redis" style="shape=cylinder3;whiteSpace=wrap;html=1;boundedLbl=1;backgroundOutline=1;size=15;" vertex="1" parent="1">
          <mxGeometry x="360" y="410" width="60" height="80" as="geometry" />
        </mxCell>
      </root>
    </mxGraphModel>
  </diagram>
</mxfile>
